<?xml version="1.0" encoding="UTF-8" standalone="no"?>
<svg width="30px" height="30px" viewBox="0 0 30 30" version="1.1" xmlns="http://www.w3.org/2000/svg" xmlns:xlink="http://www.w3.org/1999/xlink">
    <!-- Generator: Sketch 41.2 (35397) - http://www.bohemiancoding.com/sketch -->
    <title>Shape</title>
    <desc>Created with Sketch.</desc>
    <defs></defs>
    <g id="05.100.00-OpenSource-Amplitude" stroke="none" stroke-width="1" fill="none" fill-rule="evenodd">
        <g id="HD_05.100.00-521Website_OpenSource-Amplitude" transform="translate(-100.000000, -1195.000000)" fill="#272726">
            <g id="Selling-Points" transform="translate(0.000000, 1143.000000)">
                <g id="Flexible" transform="translate(0.000000, 50.000000)">
                    <g id="Content" transform="translate(100.000000, 0.000000)">
                        <path d="M29.6898076,14.2010652 C27.3525565,11.8609606 24.2473009,10.5756705 20.9390828,10.5756705 C20.9390828,10.5756705 20.9390828,10.5756705 20.9383756,10.5756705 C19.9101266,10.5756705 18.9059218,10.7135316 17.9328333,10.9553188 L21.4249199,7.46990621 L22.5875344,8.62864684 L25.9028243,5.31432342 L22.5875344,2 L19.2722444,5.31432342 L20.4362733,6.47447801 L15.0468055,11.8623745 C13.5885871,10.8761371 11.6021005,11.022482 10.3171427,12.312014 C9.03572093,13.598011 8.88791897,15.5959372 9.86312904,17.0417118 L4.47507569,22.4281944 L3.31528995,21.2645049 L0,24.5802423 L3.31528995,27.8945657 L6.6305799,24.5802423 L5.46796542,23.4172597 L8.96358791,19.9261913 C7.94453228,24.0061743 9.00743347,28.5061036 12.1897724,31.6903426 C12.4005139,31.8974879 12.6763166,32 12.9408044,32 C13.2052921,32 13.4839235,31.8967809 13.6911292,31.6903426 C14.1055404,31.2760522 14.1055404,30.6072489 13.6911292,30.1915445 C10.5236412,27.02498 9.87515121,22.2825564 11.7315156,18.4620352 C13.0391033,18.9137955 14.5418744,18.6246406 15.5771953,17.5853796 C16.6231241,16.5397559 16.9109489,15.0374228 16.4519849,13.7330443 C17.8324128,13.061413 19.354278,12.6902484 20.9348397,12.6902484 C23.6737727,12.6902484 26.2535888,13.7620304 28.1856221,15.6935005 C28.6007405,16.1077909 29.2704461,16.1077909 29.6848573,15.6935005 C30.1042188,15.2841589 30.1042188,14.6146486 29.6898076,14.2010652 L29.6898076,14.2010652 Z M22.5797553,3.99721921 L23.8908789,5.31290946 L22.5797553,6.62435783 L21.2636814,5.31290946 L22.5797553,3.99721921 L22.5797553,3.99721921 Z M3.29973185,25.9044163 L1.9843651,24.588726 L3.30114622,23.2751567 L4.61226985,24.588726 L3.29973185,25.9044163 L3.29973185,25.9044163 Z" id="Shape"></path>
                    </g>
                </g>
            </g>
        </g>
    </g>
</svg>