<?xml version="1.0" encoding="UTF-8" standalone="no"?>
<svg width="30px" height="28px" viewBox="0 0 30 28" version="1.1" xmlns="http://www.w3.org/2000/svg" xmlns:xlink="http://www.w3.org/1999/xlink">
    <!-- Generator: Sketch 41.2 (35397) - http://www.bohemiancoding.com/sketch -->
    <title>Shape</title>
    <desc>Created with Sketch.</desc>
    <defs></defs>
    <g id="05.100.00-OpenSource-Amplitude" stroke="none" stroke-width="1" fill="none" fill-rule="evenodd">
        <g id="HD_05.100.00-521Website_OpenSource-Amplitude" transform="translate(-100.000000, -1357.000000)" fill="#272726">
            <g id="Selling-Points" transform="translate(0.000000, 1143.000000)">
                <g id="Call-Back-Functions" transform="translate(0.000000, 211.000000)">
                    <g id="Content" transform="translate(100.000000, 0.000000)">
                        <path d="M16.1983179,3 C9.56777208,3 4.00957487,7.70031834 2.68157837,13.9465344 L0.641542416,13.9465344 C0.0513217513,13.9465344 -0.169153119,14.3351535 0.138825396,14.8112763 L4.13310943,21.3354451 C4.13310943,21.3354451 4.29439065,21.5670724 4.50886037,21.5670724 C4.74134555,21.5670724 4.89490586,21.3354451 4.89490586,21.3354451 L8.89004777,14.8112763 C9.19373689,14.3351535 8.97068839,13.9465344 8.38218348,13.9465344 L7.10051245,13.9465344 C8.32384772,10.0912268 11.933802,7.28939436 16.1880233,7.28939436 C21.4442472,7.28939436 25.7147682,11.5616311 25.7147682,16.817855 C25.7147682,22.0775104 21.4433893,26.3471735 16.1880233,26.3471735 C14.0398946,26.3471735 12.0127269,25.6505759 10.3252791,24.3303003 C9.39104904,23.5976717 8.04332133,23.765816 7.31326641,24.6991882 C6.58063785,25.6325604 6.74963999,26.9794302 7.6830122,27.710343 C10.1313985,29.6242708 13.0730652,30.6399994 16.1880233,30.6399994 C23.8102771,30.6399994 30.0033047,24.438393 30.0033047,16.817855 C30.022178,9.19989061 23.8197138,3 16.1983179,3 L16.1983179,3 Z" id="Shape"></path>
                    </g>
                </g>
            </g>
        </g>
    </g>
</svg>