<?xml version="1.0" encoding="UTF-8" standalone="no"?>
<svg width="20px" height="30px" viewBox="0 0 20 30" version="1.1" xmlns="http://www.w3.org/2000/svg" xmlns:xlink="http://www.w3.org/1999/xlink">
    <!-- Generator: Sketch 41.2 (35397) - http://www.bohemiancoding.com/sketch -->
    <title>Group</title>
    <desc>Created with Sketch.</desc>
    <defs></defs>
    <g id="05.100.00-OpenSource-Amplitude" stroke="none" stroke-width="1" fill="none" fill-rule="evenodd">
        <g id="T_05.100.00-521Website_OpenSource-Amplitude" transform="translate(-518.000000, -1355.000000)" fill="#272726">
            <g id="Selling-Points" transform="translate(0.000000, 1143.000000)">
                <g id="Live-Stream" transform="translate(518.000000, 209.000000)">
                    <g id="Content" transform="translate(0.872647, 0.000000)">
                        <g id="Group" transform="translate(0.000000, 3.165000)">
                            <path d="M9.24617647,20.9108824 C11.9479412,20.9108824 14.1379412,18.7544118 14.1379412,16.0888235 L14.1379412,4.82029412 C14.1379412,2.15470588 11.9479412,0 9.24617647,0 C6.54441176,0 4.35088235,2.15382353 4.35088235,4.82029412 L4.35088235,16.0888235 C4.35088235,18.7517647 6.54441176,20.9108824 9.24617647,20.9108824 L9.24617647,20.9108824 Z" id="Shape"></path>
                            <path d="M18.4923529,16.2344118 L18.4923529,13.05 C18.4923529,12.3308824 17.8994118,11.745 17.1688235,11.745 C16.4452941,11.745 15.8452941,12.3282353 15.8452941,13.05 L15.8452941,16.2344118 C15.8452941,19.8185294 12.8858824,22.7320588 9.24617647,22.7320588 C5.60647059,22.7320588 2.64705882,19.815 2.64705882,16.2344118 L2.64705882,13.05 C2.64705882,12.3308824 2.05411765,11.745 1.32352941,11.745 C0.6,11.745 0,12.3282353 0,13.05 L0,16.2344118 C0,20.8394118 3.48352941,24.6379412 7.995,25.2529412 L7.995,26.5155882 L3.86911765,26.5155882 C3.13852941,26.5155882 2.54558824,27.0970588 2.54558824,27.8205882 C2.54558824,28.5370588 3.13852941,29.1255882 3.86911765,29.1255882 L14.7644118,29.1255882 C15.495,29.1255882 16.0879412,28.5423529 16.0879412,27.8205882 C16.0879412,27.1014706 15.495,26.5155882 14.7644118,26.5155882 L10.6420588,26.5155882 L10.6420588,25.2326471 C15.075,24.5647059 18.4923529,20.7882353 18.4923529,16.2344118 L18.4923529,16.2344118 Z" id="Shape"></path>
                        </g>
                    </g>
                </g>
            </g>
        </g>
    </g>
</svg>