<?xml version="1.0" encoding="UTF-8" standalone="no"?>
<svg width="30px" height="27px" viewBox="0 0 30 27" version="1.1" xmlns="http://www.w3.org/2000/svg" xmlns:xlink="http://www.w3.org/1999/xlink">
    <!-- Generator: Sketch 41.2 (35397) - http://www.bohemiancoding.com/sketch -->
    <title>Shape</title>
    <desc>Created with Sketch.</desc>
    <defs></defs>
    <g id="05.100.00-OpenSource-Amplitude" stroke="none" stroke-width="1" fill="none" fill-rule="evenodd">
        <g id="HD_05.100.00-521Website_OpenSource-Amplitude" transform="translate(-1065.000000, -1198.000000)" fill="#272726">
            <g id="Selling-Points" transform="translate(0.000000, 1143.000000)">
                <g id="Modular" transform="translate(965.000000, 50.000000)">
                    <g id="Content" transform="translate(100.000000, 0.000000)">
                        <path d="M22.9325133,15.3447284 C22.9325133,16.019876 23.1325295,16.645949 23.4619242,17.1842826 L17.3508471,25.3628381 C17.0400412,25.171001 16.6994932,25.0282386 16.3366386,24.9404991 L16.3366386,11.956697 C17.8876935,11.5841762 19.0454081,10.1967032 19.0454081,8.53188445 C19.0454081,6.58079712 17.4638674,5 15.5142672,5 C13.5646669,5 11.9831263,6.58079712 11.9831263,8.53188445 C11.9831263,10.1967032 13.1408408,11.5841762 14.6918958,11.956697 L14.6918958,24.9397556 C14.3290411,25.027495 13.9884931,25.1717446 13.6776872,25.3620946 L6.53361445,17.183539 C6.86300915,16.6466926 7.06302534,16.0213632 7.06302534,15.3439849 C7.06302534,13.3943847 5.48148466,11.8121004 3.53188445,11.8121004 C1.58079712,11.8121004 0,13.3943847 0,15.3439849 C0,17.2943287 1.58079712,18.8743822 3.53188445,18.8743822 C4.2077756,18.8743822 4.83310503,18.674366 5.37143858,18.3449713 L12.5147678,26.5242704 C12.1853731,27.0618604 11.9853569,27.6864463 11.9853569,28.363081 C11.9853569,30.3126812 13.5668976,31.8949655 15.5164978,31.8949655 C17.466098,31.8949655 19.0476387,30.3126812 19.0476387,28.363081 C19.0476387,27.688677 18.8476225,27.0618604 18.5182278,26.5242704 L24.6285614,18.3449713 C25.1661514,18.674366 25.7899937,18.8743822 26.4681156,18.8743822 C28.4177158,18.8743822 30,17.2943287 30,15.3439849 C29.9985129,13.3943847 28.4132544,11.812844 26.4636542,11.812844 C24.5125669,11.812844 22.9325133,13.3951282 22.9325133,15.3447284 Z" id="Shape"></path>
                    </g>
                </g>
            </g>
        </g>
    </g>
</svg>