<?xml version="1.0" encoding="UTF-8" standalone="no"?>
<svg width="18px" height="30px" viewBox="0 0 18 30" version="1.1" xmlns="http://www.w3.org/2000/svg" xmlns:xlink="http://www.w3.org/1999/xlink">
    <!-- Generator: Sketch 41.2 (35397) - http://www.bohemiancoding.com/sketch -->
    <title>Shape</title>
    <desc>Created with Sketch.</desc>
    <defs></defs>
    <g id="05.100.00-OpenSource-Amplitude" stroke="none" stroke-width="1" fill="none" fill-rule="evenodd">
        <g id="HD_05.100.00-521Website_OpenSource-Amplitude" transform="translate(-589.000000, -1354.000000)" fill="#272726">
            <g id="Selling-Points" transform="translate(0.000000, 1143.000000)">
                <g id="Flexible-Copy-2" transform="translate(483.000000, 209.000000)">
                    <g id="Content" transform="translate(106.000000, 0.000000)">
                        <path d="M14.6494407,2 L3.14753484,2 C1.40973567,2 0,3.43504343 0,5.21408486 L0,28.7840405 C0,30.5612073 1.41161032,32 3.14753484,32 L14.6494407,32 C16.3881772,32 17.8025995,30.5630819 17.8025995,28.7840405 L17.8025995,5.21408486 C17.8035368,3.4378554 16.3891145,2 14.6494407,2 L14.6494407,2 Z M8.89895645,28.245079 C8.12378929,28.245079 7.49297007,27.6123852 7.49297007,26.8390927 C7.49297007,26.0639255 8.12378929,25.4331063 8.89895645,25.4331063 C9.6741236,25.4331063 10.3049428,26.0639255 10.3049428,26.8390927 C10.3049428,27.6161345 9.6741236,28.245079 8.89895645,28.245079 L8.89895645,28.245079 Z" id="Shape"></path>
                    </g>
                </g>
            </g>
        </g>
    </g>
</svg>